<svg xmlns="http://www.w3.org/2000/svg" width="46.985" height="41.59" viewBox="0 0 46.985 41.59">
  <path id="Caminho_1" data-name="Caminho 1" d="M809.376,510.256a8.046,8.046,0,0,1,2.631,6.264,9.929,9.929,0,0,1-2.505,7.14,8.747,8.747,0,0,1-6.64,2.631,9.51,9.51,0,0,1-8.268-4.072q-2.883-4.069-2.881-11.462,0-17.537,17.162-26.057l3.884,7.516a22.675,22.675,0,0,0-8.331,6.64A15.276,15.276,0,0,0,801.735,508a3.833,3.833,0,0,1,1.127-.125A9.356,9.356,0,0,1,809.376,510.256Zm25.94,0a8.046,8.046,0,0,1,2.631,6.264,9.927,9.927,0,0,1-2.506,7.14,8.742,8.742,0,0,1-6.638,2.631,9.51,9.51,0,0,1-8.268-4.072q-2.883-4.069-2.882-11.462,0-17.537,17.163-26.057l3.883,7.516a22.671,22.671,0,0,0-8.33,6.64A15.276,15.276,0,0,0,827.675,508a3.835,3.835,0,0,1,1.128-.125A9.354,9.354,0,0,1,835.316,510.256Z" transform="translate(-791.713 -484.701)" fill="#8fc8fa"/>
</svg>
