<svg width="1491" height="255" viewBox="0 0 1491 255" fill="#fff" xmlns="http://www.w3.org/2000/svg">
<path d="M325.967 229.025C318.09 227.056 315.324 225.267 315.324 220.619C315.324 215.972 318.633 213.104 324.715 213.104C327.143 212.763 329.607 213.387 331.581 214.842C333.554 216.297 334.879 218.467 335.271 220.887H338.847C338.438 217.593 336.74 214.596 334.125 212.551C331.51 210.506 328.192 209.58 324.896 209.977C315.773 209.977 311.661 215.16 311.661 220.801C311.661 226.969 315.506 229.923 324.628 232.16C333.932 234.524 336.075 237.438 336.075 242.173C336.075 246.734 333.12 250.579 325.345 250.579C322.582 250.91 319.798 250.166 317.568 248.502C315.337 246.838 313.832 244.38 313.363 241.637H309.778C309.998 243.436 310.57 245.174 311.463 246.751C312.355 248.328 313.551 249.713 314.981 250.826C316.41 251.94 318.046 252.759 319.794 253.239C321.541 253.718 323.366 253.848 325.164 253.619C335.09 253.619 339.651 248.255 339.651 241.905C339.738 236.808 337.949 231.979 325.967 229.025Z" fill="#213257"/>
<path d="M325.243 254.691C323.315 254.934 321.358 254.793 319.486 254.276C317.613 253.76 315.861 252.877 314.331 251.68C312.801 250.482 311.523 248.994 310.572 247.3C309.62 245.606 309.013 243.741 308.786 241.811L308.605 240.558H314.237L314.419 241.346C314.843 243.845 316.214 246.084 318.245 247.599C320.277 249.114 322.813 249.789 325.329 249.484C331.498 249.484 334.987 246.892 334.987 242.15C334.987 238.038 333.286 235.351 324.345 233.208C316.12 231.152 310.574 228.293 310.574 220.864C310.574 215.349 314.332 208.968 324.88 208.968C328.441 208.602 332.004 209.64 334.81 211.862C337.616 214.084 339.444 217.314 339.903 220.864L339.99 222.03H334.357L334.176 221.132C333.802 218.952 332.593 217.004 330.806 215.702C329.018 214.4 326.794 213.847 324.605 214.16C321.453 214.16 316.286 214.948 316.286 220.596C316.286 224.44 318.428 226.048 326.125 227.93C339.005 231.152 340.699 236.517 340.699 241.882C340.809 247.806 336.784 254.691 325.243 254.691ZM311.204 242.796C311.873 245.922 313.705 248.678 316.329 250.505C318.953 252.332 322.173 253.093 325.337 252.635C335.263 252.635 338.729 247.184 338.729 241.992C338.729 237.785 337.745 233.138 325.763 230.097C318.161 228.222 314.316 226.252 314.316 220.706C314.316 215.342 318.255 212.12 324.778 212.12C327.3 211.824 329.844 212.443 331.949 213.864C334.054 215.285 335.579 217.414 336.248 219.863H337.682C337.014 217.096 335.349 214.673 333.006 213.056C330.663 211.44 327.806 210.745 324.983 211.103C315.947 211.103 312.819 216.381 312.819 220.848C312.819 226.213 316.041 228.899 324.983 231.129C333.924 233.358 337.233 236.312 337.233 242.221C337.233 248.129 332.853 251.674 325.416 251.674C322.566 251.968 319.706 251.226 317.358 249.584C315.011 247.942 313.332 245.51 312.63 242.733H311.197L311.204 242.796Z" fill="#213257"/>
<path d="M385.697 209.977H382.301V253.62H385.697V209.977Z" fill="#213257"/>
<path d="M386.776 254.691H381.261V208.906H386.776V254.691ZM383.38 252.549H384.633V211.049H383.38V252.549Z" fill="#213257"/>
<path d="M443.795 229.025C435.917 227.056 433.152 225.267 433.152 220.619C433.152 215.972 436.461 213.104 442.543 213.104C444.971 212.763 447.435 213.387 449.408 214.842C451.382 216.297 452.707 218.467 453.099 220.887H456.675C456.266 217.593 454.568 214.596 451.953 212.551C449.338 210.506 446.02 209.58 442.724 209.977C433.601 209.977 429.489 215.16 429.489 220.801C429.489 226.969 433.334 229.923 442.456 232.16C451.76 234.524 453.902 237.438 453.902 242.173C453.902 246.734 450.948 250.579 443.173 250.579C440.41 250.91 437.626 250.166 435.395 248.502C433.165 246.838 431.66 244.38 431.191 241.637H427.646C427.865 243.434 428.437 245.169 429.328 246.745C430.219 248.32 431.412 249.704 432.84 250.817C434.267 251.93 435.899 252.751 437.644 253.231C439.389 253.712 441.212 253.844 443.007 253.619C452.933 253.619 457.495 248.255 457.495 241.905C457.605 236.808 455.817 231.979 443.795 229.025Z" fill="#213257"/>
<path d="M443.11 254.691C441.182 254.934 439.226 254.793 437.353 254.276C435.48 253.76 433.728 252.877 432.198 251.68C430.668 250.482 429.391 248.994 428.439 247.3C427.487 245.606 426.88 243.741 426.653 241.811L426.472 240.558H432.105L432.286 241.346C432.711 243.845 434.081 246.084 436.113 247.599C438.144 249.114 440.681 249.789 443.197 249.484C449.365 249.484 452.855 246.892 452.855 242.15C452.855 238.038 451.153 235.351 442.212 233.208C433.987 231.152 428.441 228.293 428.441 220.864C428.441 215.349 432.199 208.968 442.748 208.968C446.308 208.602 449.871 209.64 452.677 211.862C455.483 214.084 457.311 217.314 457.771 220.864L457.857 222.03H452.225L452.043 221.132C451.67 218.952 450.461 217.004 448.673 215.702C446.886 214.4 444.661 213.847 442.472 214.16C439.321 214.16 434.153 214.948 434.153 220.596C434.153 224.44 436.296 226.048 443.992 227.93C456.872 231.152 458.566 236.517 458.566 241.882C458.676 247.806 454.682 254.691 443.11 254.691ZM428.977 242.796C429.646 245.922 431.477 248.678 434.101 250.505C436.725 252.332 439.946 253.093 443.11 252.635C453.036 252.635 456.502 247.184 456.502 241.992C456.502 237.785 455.517 233.138 443.535 230.097C435.933 228.222 432.089 226.252 432.089 220.706C432.089 215.342 436.028 212.12 442.551 212.12C445.073 211.824 447.617 212.443 449.722 213.864C451.826 215.285 453.352 217.414 454.021 219.863H455.47C454.803 217.096 453.138 214.673 450.795 213.056C448.452 211.44 445.595 210.745 442.771 211.103C433.735 211.103 430.608 216.381 430.608 220.848C430.608 226.213 433.83 228.899 442.771 231.129C451.712 233.358 455.021 236.312 455.021 242.221C455.021 248.129 450.641 251.674 443.204 251.674C440.355 251.968 437.495 251.226 435.147 249.584C432.799 247.942 431.121 245.51 430.419 242.733H428.985L428.977 242.796Z" fill="#213257"/>
<path d="M494.363 213.199H508.543V253.62H512.033V213.199H526.434V209.977H494.363V213.199Z" fill="#213257"/>
<path d="M513.136 254.691H507.535V214.271H493.197V208.906H527.45V214.271H513.136V254.691ZM509.646 252.549H510.985V212.128H525.291V211.056H495.356V212.128H509.662L509.646 252.549Z" fill="#213257"/>
<path d="M565.988 253.62H593.261L593.174 250.398H569.383V232.279H591.118V229.057H569.383V213.199H593.261V209.977H565.988V253.62Z" fill="#213257"/>
<path d="M594.34 254.691H564.917V208.906H594.34V214.271H570.431V227.954H592.166V233.319H570.431V249.327H594.222L594.34 254.691ZM567.067 252.549H592.198V251.477H568.407V231.176H590.126V230.097H568.407V212.128H592.284V211.056H567.154V252.549H567.067Z" fill="#213257"/>
<path d="M654.7 249.327H654.613C653.038 244.316 645.759 224.905 639.945 209.977H634.848V253.62H638.243V235.107C638.243 227.592 638.157 217.492 637.794 212.482H637.881C639.85 219.099 648.705 242.977 652.723 253.62H656.118C661.483 239.85 670.07 218.477 671.771 212.482H671.952C671.771 216.862 671.685 225 671.685 233.587V253.62H675.08V209.977H670.07C664.09 224.464 655.685 246.105 654.7 249.327Z" fill="#213257"/>
<path d="M676.167 254.691H670.652V233.587C670.652 229.026 670.652 223.48 670.739 218.832C668.234 225.63 664.208 236.005 660.459 245.482L656.882 254.691H652.053L651.785 253.975C649.28 247.357 642.844 230.097 639.181 219.549C639.267 224.378 639.362 230.192 639.362 235.107V254.691H633.847V208.906H640.733L641 209.623C645.83 222.054 652.092 238.684 654.771 246.199C657.363 239.109 664.074 222.054 669.171 209.536L669.439 208.914H676.238L676.167 254.691ZM672.772 252.549H674.024V211.049H670.802C664.902 225.536 656.669 246.554 655.779 249.595L655.511 250.382H653.81L653.542 249.665C651.966 244.655 644.687 225.339 639.141 211.064H635.833V252.549H637.085V235.107C637.085 227.324 636.998 217.398 636.636 212.569L636.549 211.403H638.519L638.873 212.191C640.662 218.359 648.618 239.913 653.447 252.612H655.322L658.363 244.828C663.46 231.862 669.274 217.107 670.613 212.364L670.794 211.576H672.669L672.85 212.648C672.669 216.492 672.583 223.74 672.583 233.666V252.572L672.772 252.549Z" fill="#213257"/>
<path d="M731.532 209.977L715.879 253.62H719.368L724.733 238.597H742.616L748.067 253.62H751.825L735.549 209.977H731.532ZM725.899 235.462C729.743 224.433 732.43 216.681 733.501 213.404H733.588C734.486 216.358 736.897 222.613 741.544 235.462H725.899Z" fill="#213257"/>
<path d="M753.432 254.691H747.374L741.922 239.669H725.537L720.172 254.691H714.445L730.831 208.906H736.345L753.432 254.691ZM748.871 252.549H750.304L734.832 211.056H732.241L717.399 252.549H718.565L723.93 237.526H743.333L748.871 252.549ZM743.057 236.541H724.371L727.947 226.166C730.09 219.903 731.705 215.436 732.422 213.112L732.69 212.396H734.265L734.533 213.183C735.069 215.153 736.408 218.635 738.559 224.449C739.63 227.403 740.977 230.885 742.498 235.178L743.057 236.541ZM727.404 234.398H740.008C738.669 230.822 737.598 227.694 736.613 225.095C735.274 221.337 734.194 218.658 733.572 216.689C732.784 219.194 731.516 222.589 730.082 226.796L727.404 234.398Z" fill="#213257"/>
<path d="M805.93 229.113C798.052 227.144 795.287 225.356 795.287 220.708C795.287 216.06 798.596 213.192 804.677 213.192C807.105 212.852 809.57 213.476 811.543 214.931C813.516 216.386 814.841 218.556 815.234 220.976H818.81C818.4 217.682 816.702 214.684 814.087 212.639C811.473 210.594 808.154 209.669 804.858 210.065C795.736 210.065 791.624 215.343 791.624 220.976C791.624 227.144 795.468 230.098 804.591 232.335C813.894 234.699 816.037 237.614 816.037 242.348C816.037 246.909 813.083 250.84 805.307 250.84C802.545 251.171 799.76 250.428 797.53 248.764C795.3 247.099 793.795 244.642 793.325 241.899H789.741C789.954 243.7 790.522 245.44 791.414 247.02C792.305 248.599 793.501 249.985 794.932 251.099C796.363 252.212 798.002 253.03 799.752 253.505C801.502 253.98 803.328 254.102 805.126 253.865C815.052 253.865 819.614 248.414 819.614 242.151C819.7 236.897 817.912 232.068 805.93 229.113Z" fill="#213257"/>
<path d="M805.205 254.778C803.277 255.02 801.321 254.878 799.449 254.36C797.576 253.842 795.825 252.959 794.296 251.761C792.767 250.563 791.49 249.074 790.539 247.379C789.588 245.685 788.982 243.82 788.756 241.89L788.575 240.638H794.208L794.389 241.425C794.814 243.924 796.184 246.163 798.215 247.678C800.247 249.193 802.784 249.868 805.3 249.563C811.468 249.563 814.958 246.971 814.958 242.142C814.958 238.03 813.256 235.344 804.315 233.107C796.09 231.05 790.544 228.191 790.544 220.675C790.544 215.161 794.302 208.693 804.85 208.693C808.411 208.327 811.974 209.365 814.78 211.587C817.586 213.809 819.414 217.039 819.873 220.589L819.96 221.755H814.446L814.264 220.857C813.891 218.677 812.682 216.729 810.894 215.427C809.107 214.125 806.882 213.572 804.693 213.885C801.542 213.885 796.374 214.673 796.374 220.321C796.374 224.165 798.517 225.772 806.213 227.655C818.999 230.877 820.787 236.242 820.787 241.607C820.795 247.893 816.659 254.778 805.205 254.778ZM791.072 242.796C791.741 245.923 793.572 248.679 796.196 250.506C798.82 252.333 802.041 253.094 805.205 252.636C815.131 252.636 818.597 247.121 818.597 241.993C818.597 237.786 817.613 233.051 805.63 230.097C798.028 228.222 794.184 226.253 794.184 220.644C794.184 215.279 798.123 212.057 804.646 212.057C807.172 211.763 809.72 212.387 811.825 213.814C813.93 215.241 815.453 217.377 816.116 219.832H817.549C816.882 217.065 815.217 214.642 812.874 213.025C810.531 211.409 807.674 210.714 804.85 211.072C795.815 211.072 792.687 216.351 792.687 220.912C792.687 226.277 795.838 228.963 804.85 231.192C813.863 233.422 817.1 236.376 817.1 242.284C817.1 248.193 812.72 251.856 805.284 251.856C802.434 252.149 799.574 251.407 797.226 249.766C794.878 248.124 793.2 245.692 792.498 242.914H791.064L791.072 242.796Z" fill="#213257"/>
<path d="M925.183 209.978H911.003V253.621H925.136C927.94 253.604 930.709 253.001 933.265 251.849C935.822 250.697 938.109 249.023 939.979 246.934C941.849 244.845 943.261 242.388 944.123 239.72C944.986 237.052 945.281 234.233 944.988 231.445C945.282 228.695 944.985 225.914 944.117 223.288C943.249 220.662 941.829 218.253 939.954 216.22C938.079 214.187 935.791 212.579 933.243 211.502C930.696 210.426 927.948 209.906 925.183 209.978ZM924.648 250.399H914.454V213.2H924.648C929.232 213.7 933.469 215.875 936.548 219.307C939.626 222.74 941.329 227.188 941.329 231.799C941.329 236.41 939.626 240.859 936.548 244.291C933.469 247.724 929.232 249.899 924.648 250.399Z" fill="#213257"/>
<path d="M925.223 254.692H910.019V208.906H925.309C928.209 208.849 931.087 209.406 933.756 210.542C936.424 211.677 938.821 213.366 940.79 215.495C942.759 217.624 944.254 220.147 945.177 222.896C946.1 225.645 946.431 228.558 946.146 231.444C946.429 234.372 946.1 237.327 945.18 240.12C944.26 242.914 942.768 245.486 940.8 247.672C938.833 249.859 936.432 251.612 933.75 252.82C931.068 254.029 928.164 254.666 925.223 254.692ZM912.169 252.549H925.223C927.889 252.542 930.524 251.972 932.955 250.877C935.386 249.782 937.559 248.187 939.331 246.195C941.104 244.203 942.436 241.86 943.241 239.318C944.046 236.776 944.306 234.093 944.003 231.444C944.298 228.839 944.031 226.201 943.22 223.708C942.408 221.215 941.072 218.925 939.3 216.993C937.528 215.061 935.362 213.531 932.949 212.507C930.535 211.483 927.93 210.988 925.309 211.057H912.161L912.169 252.549ZM924.687 251.477H913.422V212.128H924.687C929.566 212.617 934.089 214.9 937.378 218.536C940.668 222.172 942.489 226.9 942.489 231.803C942.489 236.706 940.668 241.434 937.378 245.069C934.089 248.705 929.566 250.989 924.687 251.477ZM915.565 249.335H924.687C934.432 249.335 940.34 242.717 940.34 231.625C940.608 229.428 940.401 227.198 939.732 225.087C939.064 222.976 937.95 221.033 936.466 219.39C934.982 217.747 933.162 216.442 931.13 215.563C929.098 214.683 926.901 214.251 924.687 214.294H915.565V249.335Z" fill="#213257"/>
<path d="M987.733 253.62H1014.92V250.398H991.128V232.279H1012.77V229.057H991.128V213.199H1014.92V209.977H987.733V253.62Z" fill="#213257"/>
<path d="M1015.99 254.691H986.662V208.906H1015.99V214.271H992.2V227.954H1013.84V233.319H992.105V249.327H1015.9L1015.99 254.691ZM988.805 252.549H1013.85V251.477H990.057V231.176H1011.79V230.097H990.057V212.128H1013.85V211.056H988.805V252.549Z" fill="#213257"/>
<path d="M1122.15 213.106C1125.15 212.829 1128.15 213.645 1130.6 215.403C1133.05 217.162 1134.78 219.745 1135.47 222.677H1138.87C1138.23 218.842 1136.16 215.393 1133.07 213.033C1129.98 210.674 1126.11 209.581 1122.24 209.978C1109.72 209.978 1103.01 219.55 1103.01 232.249C1103.01 244.325 1109.27 253.621 1121.52 253.621C1124.28 253.918 1127.06 253.388 1129.51 252.097C1131.96 250.806 1133.98 248.813 1135.29 246.373C1135.2 248.649 1135.35 250.928 1135.74 253.172H1138.6V230.728H1121.61V233.879H1135.29V234.328C1135.29 243.632 1132.34 250.517 1121.79 250.517C1111.41 250.517 1106.77 241.757 1106.77 232.099C1106.67 221.338 1111.5 213.106 1122.15 213.106Z" fill="#213257"/>
<path d="M1121.61 254.692C1109.71 254.692 1102.02 245.837 1102.02 232.248C1102.02 218.115 1109.98 208.906 1122.33 208.906C1126.45 208.499 1130.58 209.676 1133.87 212.2C1137.16 214.724 1139.36 218.405 1140.03 222.495L1140.22 223.748H1134.76L1134.5 222.96C1133.84 220.255 1132.23 217.877 1129.97 216.267C1127.7 214.657 1124.92 213.922 1122.15 214.2C1109.19 214.2 1107.75 226.718 1107.75 232.082C1107.75 240.488 1111.41 249.414 1121.7 249.414C1130.2 249.414 1134.05 244.939 1134.13 234.84H1120.46V229.562H1139.59V254.156H1135.03L1134.76 253.534C1134.41 252.284 1134.26 250.986 1134.32 249.689C1132.71 251.426 1130.73 252.778 1128.53 253.644C1126.33 254.511 1123.97 254.869 1121.61 254.692ZM1122.23 211.049C1111.05 211.049 1104.11 219.186 1104.11 232.24C1104.11 242.079 1108.67 252.541 1121.55 252.541C1124.11 252.826 1126.69 252.34 1128.97 251.146C1131.25 249.951 1133.12 248.102 1134.34 245.837L1136.31 242.174L1136.4 246.381C1136.48 249.603 1136.58 251.296 1136.66 252.108H1137.56V231.799H1122.72V232.784H1136.4V234.304C1136.4 245.932 1131.68 251.564 1121.83 251.564C1111.98 251.564 1105.73 243.875 1105.73 232.067C1105.73 219.549 1111.9 212.033 1122.28 212.033C1125.37 211.765 1128.47 212.569 1131.04 214.312C1133.62 216.055 1135.51 218.63 1136.41 221.605H1137.75C1136.81 218.309 1134.74 215.447 1131.91 213.519C1129.07 211.59 1125.64 210.716 1122.23 211.049Z" fill="#213257"/>
<path d="M1182.87 253.62H1210.05V250.398H1186.26V232.279H1207.9V229.057H1186.26V213.199H1210.14V209.977H1182.87V253.62Z" fill="#213257"/>
<path d="M1211.1 254.691H1181.79V208.906H1211.22V214.271H1187.34V227.954H1209.07V233.319H1187.34V249.327H1211.13L1211.1 254.691ZM1183.91 252.549H1208.96V251.477H1185.17V231.176H1206.9V230.097H1185.17V212.128H1209.04V211.056H1183.84V252.549H1183.91Z" fill="#213257"/>
<path d="M1264.96 229.025C1257.08 227.056 1254.32 225.267 1254.32 220.619C1254.32 215.972 1257.63 213.104 1263.71 213.104C1266.14 212.763 1268.6 213.387 1270.57 214.842C1272.55 216.297 1273.87 218.467 1274.26 220.887H1277.84C1277.43 217.593 1275.73 214.596 1273.12 212.551C1270.5 210.506 1267.18 209.58 1263.89 209.977C1254.77 209.977 1250.65 215.16 1250.65 220.801C1250.65 226.969 1254.5 229.923 1263.62 232.16C1272.92 234.524 1275.07 237.438 1275.07 242.173C1275.07 246.734 1272.11 250.579 1264.34 250.579C1261.58 250.91 1258.79 250.166 1256.56 248.502C1254.33 246.838 1252.83 244.38 1252.36 241.637H1248.78C1249 243.436 1249.57 245.174 1250.46 246.751C1251.36 248.328 1252.55 249.713 1253.98 250.826C1255.41 251.94 1257.05 252.759 1258.79 253.239C1260.54 253.718 1262.37 253.848 1264.16 253.619C1274.09 253.619 1278.65 248.255 1278.65 241.905C1278.82 236.808 1277.03 231.979 1264.96 229.025Z" fill="#213257"/>
<path d="M1264.33 254.691C1262.4 254.934 1260.45 254.793 1258.57 254.276C1256.7 253.76 1254.95 252.877 1253.42 251.68C1251.89 250.482 1250.61 248.994 1249.66 247.3C1248.71 245.606 1248.1 243.741 1247.87 241.811L1247.69 240.558H1253.32L1253.51 241.346C1253.93 243.845 1255.3 246.084 1257.33 247.599C1259.36 249.114 1261.9 249.789 1264.42 249.484C1270.59 249.484 1274.08 246.892 1274.08 242.15C1274.08 238.038 1272.37 235.351 1263.43 233.208C1255.21 231.152 1249.66 228.293 1249.66 220.864C1249.66 215.349 1253.42 208.968 1263.97 208.968C1267.53 208.602 1271.09 209.64 1273.9 211.862C1276.7 214.084 1278.53 217.314 1278.99 220.864L1279.08 222.03H1273.44L1273.26 221.132C1272.89 218.952 1271.68 217.004 1269.89 215.702C1268.11 214.4 1265.88 213.847 1263.69 214.16C1260.54 214.16 1255.37 214.948 1255.37 220.596C1255.37 224.44 1257.52 226.048 1265.21 227.93C1278 231.152 1279.79 236.517 1279.79 241.882C1279.9 247.806 1275.78 254.691 1264.33 254.691ZM1250.2 242.796C1250.87 245.922 1252.7 248.678 1255.32 250.505C1257.95 252.332 1261.17 253.093 1264.33 252.635C1274.26 252.635 1277.72 247.184 1277.72 241.992C1277.72 237.785 1276.74 233.051 1264.76 230.097C1257.15 228.222 1253.31 226.252 1253.31 220.706C1253.31 215.342 1257.25 212.12 1263.77 212.12C1266.3 211.802 1268.86 212.417 1270.96 213.85C1273.07 215.283 1274.58 217.435 1275.22 219.903H1276.65C1275.98 217.136 1274.32 214.712 1271.98 213.096C1269.63 211.479 1266.78 210.784 1263.95 211.143C1254.92 211.143 1251.79 216.421 1251.79 220.888C1251.79 226.252 1254.94 228.939 1263.95 231.168C1272.96 233.397 1276.2 236.352 1276.2 242.26C1276.2 248.168 1271.82 251.713 1264.39 251.713C1261.54 252.007 1258.68 251.265 1256.33 249.623C1253.98 247.981 1252.3 245.549 1251.6 242.772H1250.17L1250.2 242.796Z" fill="#213257"/>
<path d="M1315.49 213.199H1329.79V253.62H1333.28V213.199H1347.59V209.977H1315.49V213.199Z" fill="#213257"/>
<path d="M1334.36 254.691H1328.73V214.271H1314.42V208.906H1348.67V214.271H1334.36V254.691ZM1330.87 252.549H1332.21V212.128H1346.52V211.056H1316.58V212.128H1330.88L1330.87 252.549Z" fill="#213257"/>
<path d="M1390.25 197.191C1393.11 197.191 1396.95 200.768 1400.53 200.768C1403.48 200.768 1405.18 199.247 1405.18 195.135V194.064H1402.59V194.852C1402.59 197.215 1401.8 197.892 1400.44 197.892C1397.94 197.892 1393.83 194.402 1390.25 194.402C1387.39 194.402 1385.52 195.923 1385.52 200.035V200.823H1388.3V199.751C1388.28 197.821 1389.08 197.191 1390.25 197.191Z" fill="#213257"/>
<path d="M1400.53 201.84C1398.34 201.646 1396.23 200.942 1394.36 199.783C1393.11 198.997 1391.71 198.479 1390.25 198.263C1389.89 198.263 1389.35 198.263 1389.35 199.697V201.84H1384.44V199.965C1384.44 194.151 1388.1 193.261 1390.25 193.261C1392.55 193.464 1394.78 194.166 1396.78 195.317C1397.94 196.018 1399.21 196.504 1400.54 196.75C1401.07 196.75 1401.61 196.75 1401.61 194.781V192.898H1406.34V195.041C1406.26 199.602 1404.38 201.84 1400.53 201.84ZM1390.25 196.112C1392.06 196.33 1393.8 196.94 1395.35 197.901C1396.93 198.863 1398.69 199.473 1400.53 199.689C1402.67 199.689 1404.11 198.901 1404.11 195.128H1403.66C1403.57 197.633 1402.49 198.885 1400.44 198.885C1398.8 198.671 1397.22 198.136 1395.79 197.31C1394.1 196.307 1392.22 195.669 1390.27 195.435C1388.57 195.435 1386.61 195.971 1386.61 199.728H1387.23C1387.21 196.475 1389.35 196.112 1390.25 196.112Z" fill="#213257"/>
<path d="M1393.59 209.977L1377.94 253.62H1381.43L1386.79 238.597H1404.67L1410.12 253.62H1413.88L1397.61 209.977H1393.59ZM1388.08 235.73C1391.92 224.819 1394.61 217.217 1395.68 213.995H1395.76C1396.66 216.949 1399.07 223.031 1403.72 235.73H1388.08Z" fill="#213257"/>
<path d="M1415.47 254.691H1409.48L1404.03 239.669H1387.57L1382.21 254.691H1376.48L1392.84 208.906H1398.36L1415.47 254.691ZM1411 252.549H1412.43L1396.96 211.056H1394.37L1379.53 252.549H1380.69L1386.06 237.526H1405.46L1411 252.549ZM1405.19 236.793H1386.49L1390.07 226.513C1392.21 220.344 1393.83 215.956 1394.54 213.632L1394.81 212.916H1396.39L1396.65 213.703C1397.19 215.578 1398.53 219.068 1400.68 224.882C1401.75 227.742 1403.09 231.231 1404.62 235.438L1405.19 236.793ZM1389.53 234.65H1402.14C1400.8 231.074 1399.72 228.12 1398.74 225.615C1397.4 221.951 1396.32 219.265 1395.59 217.296C1394.8 219.801 1393.53 223.109 1392.1 227.222L1389.53 234.65Z" fill="#213257"/>
<path d="M1470.88 209.977C1465.54 210.577 1460.62 213.107 1457.02 217.09C1453.42 221.073 1451.41 226.234 1451.35 231.6C1451.3 236.966 1453.2 242.168 1456.72 246.224C1460.23 250.28 1465.11 252.91 1470.43 253.62C1483.58 253.62 1489.83 243.064 1489.83 231.444C1490.14 228.762 1489.87 226.046 1489.06 223.472C1488.25 220.898 1486.91 218.523 1485.12 216.499C1483.34 214.476 1481.15 212.85 1478.69 211.727C1476.24 210.603 1473.58 210.007 1470.88 209.977ZM1470.7 250.485C1468.41 250.333 1466.17 249.715 1464.13 248.668C1462.09 247.621 1460.29 246.166 1458.83 244.395C1457.37 242.624 1456.29 240.573 1455.66 238.369C1455.02 236.164 1454.85 233.853 1455.14 231.578C1455.14 222.006 1459.86 213.065 1470.79 213.065C1480.99 213.065 1486.26 221.652 1486.26 231.578C1486.26 241.504 1481.65 250.485 1470.74 250.485H1470.7Z" fill="#213257"/>
<path d="M1470.47 254.691C1465.83 255.234 1461.14 254.359 1457.01 252.18C1452.88 250.001 1449.51 246.621 1447.35 242.487C1445.18 238.352 1444.32 233.658 1444.87 229.023C1445.43 224.389 1447.38 220.032 1450.46 216.528C1453.55 213.024 1457.62 210.538 1462.15 209.398C1466.68 208.259 1471.44 208.518 1475.82 210.144C1480.19 211.769 1483.97 214.683 1486.66 218.502C1489.34 222.32 1490.81 226.863 1490.86 231.531C1491.2 234.421 1490.93 237.352 1490.06 240.131C1489.2 242.91 1487.75 245.476 1485.83 247.661C1483.91 249.846 1481.55 251.601 1478.9 252.812C1476.25 254.024 1473.38 254.664 1470.47 254.691ZM1470.92 211.048C1465.87 211.651 1461.22 214.069 1457.83 217.85C1454.44 221.631 1452.53 226.518 1452.48 231.597C1452.42 236.677 1454.22 241.604 1457.53 245.457C1460.84 249.311 1465.44 251.829 1470.47 252.541C1473.1 252.496 1475.7 251.896 1478.09 250.782C1480.48 249.668 1482.61 248.063 1484.34 246.073C1486.07 244.083 1487.36 241.751 1488.13 239.229C1488.89 236.708 1489.12 234.052 1488.8 231.436C1489.1 228.896 1488.87 226.321 1488.11 223.878C1487.35 221.435 1486.09 219.179 1484.4 217.256C1482.72 215.333 1480.64 213.786 1478.32 212.717C1476 211.647 1473.48 211.079 1470.92 211.048ZM1470.74 251.556C1468.31 251.405 1465.94 250.76 1463.77 249.662C1461.61 248.563 1459.68 247.034 1458.13 245.168C1456.57 243.301 1455.41 241.137 1454.72 238.807C1454.03 236.477 1453.82 234.031 1454.11 231.617C1453.71 229.204 1453.84 226.733 1454.49 224.376C1455.15 222.019 1456.3 219.832 1457.89 217.967C1459.47 216.102 1461.44 214.604 1463.66 213.576C1465.88 212.549 1468.29 212.017 1470.74 212.017C1473.19 212.017 1475.6 212.549 1477.82 213.576C1480.04 214.604 1482.01 216.102 1483.59 217.967C1485.18 219.832 1486.33 222.019 1486.99 224.376C1487.64 226.733 1487.77 229.204 1487.37 231.617C1487.3 241.275 1482.99 251.564 1470.75 251.564L1470.74 251.556ZM1470.82 214.176C1460.09 214.176 1456.25 223.566 1456.25 231.617C1456.25 240.204 1460.81 249.413 1470.74 249.413C1484.13 249.413 1485.22 235.729 1485.22 231.531C1485.14 222.944 1480.76 214.184 1470.83 214.184L1470.82 214.176Z" fill="#213257"/>
<path d="M367.46 67.1609C340.628 60.4569 331.419 54.4618 331.419 38.9032C331.419 23.1476 342.448 13.8597 362.449 13.8597C385.074 13.8597 394.551 25.2195 397.687 40.1479H413.34C411.371 21.1861 397.151 0.71167 363.174 0.71167C330.623 0.71167 315.419 19.13 315.419 40.1479C315.419 61.7015 328.386 72.7856 361.567 81.1125C393.078 88.8957 400.468 98.5539 400.468 114.735C400.468 130.12 390.542 142.725 365.144 142.725C341.983 142.725 329.197 131.814 324.904 112.679H309.243C312.197 134.232 326.952 155.676 364.309 155.676C399.759 155.676 416.538 136.541 416.538 113.38C416.467 94.6228 409.669 77.6856 367.46 67.1609Z" fill="#213257"/>
<path d="M364.214 156.234C319.232 156.234 310.291 125.739 308.502 112.686L308.416 111.969H325.322L325.408 112.504C329.788 132.089 343.117 142.015 364.939 142.015C395.079 142.015 399.601 124.936 399.601 114.742C399.601 99.5376 393.52 89.7928 361.236 81.8284C327.701 73.4228 314.647 61.7951 314.647 40.2415C314.647 21.7287 327.346 0.175049 363.025 0.175049C397.451 0.175049 411.867 20.9251 413.821 40.2415L413.907 40.9584H397.065L396.978 40.4227C393.401 23.0915 382.136 14.6702 362.457 14.6702C343.141 14.6702 332.144 23.5248 332.144 38.9968C332.144 53.5707 340.1 59.7469 367.649 66.5691C411.111 77.3932 417.106 95.457 417.106 113.34C417.098 134.058 403.233 156.234 364.214 156.234ZM310.023 113.221C311.992 126.369 321.201 154.895 364.309 154.895C402.319 154.895 415.822 133.436 415.822 113.308C415.822 93.1802 407.597 77.8579 367.35 67.8768C338.989 60.7868 330.773 54.3742 330.773 38.9889C330.773 22.7134 342.306 13.3231 362.434 13.3231C382.372 13.3231 394.362 22.1777 398.207 39.6113H412.513C410.276 21.0118 396.237 1.51426 363.056 1.51426C328.268 1.51426 316.018 22.351 316.018 40.2336C316.018 61.3382 328.362 72.249 361.622 80.5679C394.536 88.7057 401.059 99.2619 401.059 114.821C401.059 132.939 387.911 143.441 365.018 143.441C342.661 143.441 328.89 133.333 324.242 113.395H310.062L310.023 113.221Z" fill="#213257"/>
<path d="M540.59 93.2673C540.59 131.364 523.33 142.007 499.539 142.007C479.324 142.007 458.401 131.9 458.401 93.2673V0.979004H442.842V94.0709C442.842 139.589 469.044 155.518 499.184 155.518C530.396 155.518 556.062 140.944 556.062 92.385V0.979004H540.676V93.2673H540.59Z" fill="#213257"/>
<path d="M499.184 156.226C477.914 156.226 442.22 148.175 442.22 94.1644V0.355713H459.126V93.2743C459.126 132.978 481.128 141.329 499.633 141.329C527.206 141.329 539.968 126.038 539.968 93.2743V0.355713H556.684V92.4629C556.684 134.767 537.368 156.226 499.184 156.226ZM443.473 1.69492V94.1802C443.473 147.032 478.348 154.902 499.098 154.902C536.391 154.902 555.258 133.884 555.258 92.392V1.69492H541.22V93.2743C541.22 126.991 527.985 142.636 499.547 142.636C483.893 142.636 457.692 136.2 457.692 93.2743V1.69492H443.473Z" fill="#213257"/>
<path d="M637.172 0.979004H582.445V155.872H597.83V90.1399H635.84C664.901 90.1399 684.486 73.951 684.486 44.9765C684.486 17.2545 665.169 0.979004 637.172 0.979004ZM635.919 76.2749H597.83V14.8282H636.817C655.724 14.8282 668.478 25.5577 668.478 45.4097C668.478 64.3165 658.386 76.2749 635.919 76.2749Z" fill="#213257"/>
<path d="M598.429 156.588H581.728V0.355713H637.172C666.319 0.355713 685.108 17.8838 685.108 45.0701C685.108 73.3277 666.201 90.8558 635.832 90.8558H598.539V156.588H598.429ZM583.043 155.249H597.081V89.5166H635.683C665.28 89.5166 683.619 72.5242 683.619 45.0701C683.619 18.3328 665.736 1.69492 637.03 1.69492H582.98V155.249H583.043ZM635.895 76.9987H597.113V14.2206H636.73C657.031 14.2206 669.1 25.9349 669.1 45.5191C669.1 65.8202 657.386 76.9987 635.919 76.9987H635.895ZM598.429 75.6595H635.895C656.732 75.6595 667.73 65.2845 667.73 45.5191C667.73 26.7385 656.102 15.5835 636.699 15.5835H598.429V75.6595Z" fill="#213257"/>
<path d="M806.197 141.921H725.891V81.4664H801.014V67.4203H725.891V15.0172H805.748V0.979004H710.774V155.872H806.197V141.921Z" fill="#213257"/>
<path d="M806.914 156.588H710.151V0.355713H806.465V15.6465H726.514V66.7103H801.723V82.0957H726.514V141.179H806.82V156.564L806.914 156.588ZM711.491 155.249H805.575V142.55H725.261V80.788H800.47V68.0496H725.261V14.3073H805.213V1.60829H711.491V155.249Z" fill="#213257"/>
<path d="M943.736 155.518L906.356 95.7882C911.335 94.8463 916.059 92.8653 920.221 89.9744C924.341 87.1218 927.941 83.5832 930.864 79.5127C933.89 75.2474 936.241 70.5418 937.836 65.5612C939.461 60.2899 940.274 54.8018 940.246 49.2856C940.249 43.2286 939.128 37.2236 936.937 31.5764C934.796 25.8734 931.644 20.603 927.634 16.0177C923.634 11.4275 918.781 7.65781 913.343 4.91792C907.738 2.04787 901.522 0.574912 895.225 0.624503H831.414V155.518H846.17V98.3721H890.971L926.83 155.518H943.736ZM846.051 84.8696V14.2137H894.523C898.632 14.224 902.681 15.2038 906.34 17.0733C910.077 18.9538 913.417 21.5346 916.179 24.6754C919.034 28.0094 921.275 31.8237 922.797 35.9407C924.402 40.2227 925.219 44.7599 925.207 49.3329C925.23 53.8609 924.506 58.3617 923.065 62.6542C921.701 66.7434 919.676 70.581 917.07 74.014C914.561 77.2893 911.391 80.0002 907.766 81.9706C904.051 83.9513 899.899 84.9671 895.689 84.9248H846.059L846.051 84.8696Z" fill="#213257"/>
<path d="M944.894 156.235H926.476L926.295 155.88L890.616 99.0024H846.792V156.14H830.698V0.00213638H895.138C901.535 -0.0640478 907.855 1.40843 913.564 4.29552C919.083 7.06807 924.005 10.8953 928.051 15.5608C932.093 20.2394 935.272 25.5979 937.442 31.3873C939.624 37.097 940.745 43.1573 940.75 49.2698C940.791 54.8534 939.945 60.408 938.245 65.7266C936.668 70.7924 934.273 75.5662 931.155 79.8593C928.172 83.9911 924.513 87.5894 920.331 90.5022C916.346 93.2186 911.886 95.1614 907.183 96.2293L944.894 156.235ZM927.185 154.895H942.476L905.277 95.3391L906.261 95.158C911.131 94.2373 915.757 92.3196 919.85 89.5253C923.919 86.712 927.487 83.2371 930.407 79.2448C933.42 75.0506 935.745 70.4019 937.292 65.4744C938.917 60.2653 939.73 54.8368 939.703 49.3801C939.641 37.3014 935.228 25.6496 927.271 16.5613C923.305 12.0198 918.508 8.27657 913.139 5.53234C907.597 2.72713 901.467 1.28492 895.256 1.3256H832.116V154.895H845.508V97.7498H891.388L891.569 98.1043L927.185 154.895ZM895.926 85.4762H845.508V13.5047H894.602C898.834 13.505 903.005 14.5179 906.766 16.4588C910.577 18.3785 913.978 21.0221 916.778 24.2421C922.706 31.2759 925.967 40.1735 925.987 49.3722C926.017 53.9601 925.293 58.5217 923.845 62.8748C922.47 67.0296 920.415 70.9271 917.763 74.4079C915.228 77.7635 912.005 80.5382 908.31 82.5456C904.489 84.5358 900.233 85.543 895.926 85.4762ZM846.831 84.137H895.926C900.008 84.1779 904.036 83.1947 907.64 81.2773C911.194 79.3883 914.281 76.7291 916.676 73.4941C919.216 70.1001 921.207 66.3279 922.576 62.3155C924.018 58.1153 924.742 53.7025 924.719 49.262C924.733 44.7682 923.916 40.3105 922.308 36.1139C920.839 32.0621 918.624 28.3213 915.778 25.085C913.097 21.9552 909.812 19.399 906.12 17.5696C902.554 15.731 898.598 14.7797 894.586 14.7966H846.705V84.1212L846.831 84.137Z" fill="#213257"/>
<path d="M1019.03 67.1609C992.2 60.4569 982.991 54.4618 982.991 38.9032C982.991 23.1476 994.02 13.8597 1014.02 13.8597C1036.65 13.8597 1046.12 25.2195 1049.26 40.1479H1064.91C1062.94 21.1861 1048.72 0.71167 1014.75 0.71167C982.196 0.71167 966.991 19.13 966.991 40.1479C966.991 61.7015 979.958 72.7856 1013.14 81.1125C1044.65 88.8957 1052.04 98.5539 1052.04 114.735C1052.04 130.12 1042.11 142.725 1016.72 142.725C993.555 142.725 980.77 131.814 976.476 112.679H960.815C963.769 134.232 978.524 155.691 1015.9 155.691C1051.35 155.691 1068.13 136.556 1068.13 113.396C1068.04 94.6229 1061.24 77.6856 1019.03 67.1609Z" fill="#213257"/>
<path d="M1015.9 156.234C970.922 156.234 961.981 125.739 960.193 112.686L960.106 111.969H977.012L977.098 112.504C981.478 132.089 994.808 142.015 1016.63 142.015C1046.77 142.015 1051.29 124.936 1051.29 114.742C1051.29 99.5376 1045.21 89.7928 1012.93 81.8284C979.391 73.4228 966.337 61.7951 966.337 40.2415C966.337 21.7287 979.036 0.175049 1014.71 0.175049C1049.14 0.175049 1063.56 20.9251 1065.51 40.2415L1065.6 40.9584H1048.72L1048.64 40.4227C1045.06 23.0915 1033.79 14.6702 1014.12 14.6702C994.8 14.6702 983.802 23.5248 983.802 38.9968C983.802 53.5707 991.759 59.7469 1019.31 66.5691C1062.77 77.3932 1068.76 95.457 1068.76 113.34C1068.76 134.058 1054.8 156.234 1015.9 156.234ZM961.619 113.221C963.588 126.369 972.797 154.895 1015.9 154.895C1053.91 154.895 1067.42 133.436 1067.42 113.308C1067.42 93.1802 1059.19 77.8579 1018.95 67.8768C990.585 60.7868 982.369 54.3742 982.369 38.9889C982.369 22.7134 993.902 13.3231 1014.03 13.3231C1033.97 13.3231 1045.96 22.1777 1049.8 39.6113H1064.11C1061.87 21.0118 1047.83 1.51426 1014.65 1.51426C979.99 1.51426 967.614 22.351 967.614 40.2336C967.614 61.3382 979.958 72.249 1013.22 80.5679C1046.13 88.7057 1052.65 99.2619 1052.65 114.821C1052.65 132.939 1039.51 143.441 1016.61 143.441C994.256 143.441 980.486 133.333 975.838 113.395H961.658L961.619 113.221Z" fill="#213257"/>
<path d="M1163.36 0.71167C1118.73 0.71167 1094.41 35.3739 1094.41 78.3315C1094.41 121.612 1118.91 155.951 1161.75 155.951C1208.17 155.951 1230.53 118.658 1230.53 77.3468C1230.43 32.9948 1204.68 0.71167 1163.36 0.71167ZM1162.46 142.276C1128.39 142.276 1110.47 111.426 1110.47 77.6226C1110.47 44.4413 1126.39 14.3087 1162.7 14.3087C1197.22 14.3087 1214.3 43.6378 1214.3 77.5359C1214.34 111.781 1199.22 142.276 1162.47 142.276H1162.46Z" fill="#213257"/>
<path d="M1161.75 156.589C1121.06 156.589 1093.79 125.077 1093.79 78.3385C1093.79 31.5996 1121.78 0.0883789 1163.37 0.0883789C1203.88 0.0883789 1231.12 31.119 1231.12 77.3538C1231.67 97.1168 1225.66 116.507 1214.04 132.498C1207.81 140.316 1199.84 146.567 1190.76 150.751C1181.68 154.934 1171.74 156.933 1161.75 156.589ZM1163.33 1.3961C1122.55 1.3961 1095.09 32.3401 1095.09 78.307C1095.09 124.274 1121.83 155.218 1161.71 155.218C1211.97 155.218 1229.77 113.277 1229.77 77.3223C1229.81 31.9147 1203.07 1.42762 1163.37 1.42762L1163.33 1.3961ZM1162.43 142.96C1126.3 142.96 1109.85 109.156 1109.85 77.6768C1109.85 46.7328 1123.71 13.6461 1162.7 13.6461C1201.25 13.6461 1215.02 48.072 1215.02 77.5901C1214.97 109.188 1201.2 142.992 1162.47 142.992L1162.43 142.96ZM1162.7 14.9853C1124.69 14.9853 1111.19 47.3552 1111.19 77.6768C1111.19 108.44 1127.19 141.621 1162.39 141.621C1194.41 141.621 1213.6 117.657 1213.6 77.5901C1213.63 48.7338 1200.3 15.0247 1162.74 15.0247L1162.7 14.9853Z" fill="#213257"/>
<path d="M1256.82 155.873H1271.93V83.6176H1344.72V69.5714H1271.93V14.6475H1349.55V0.625H1256.82V155.873Z" fill="#213257"/>
<path d="M1272.56 156.589H1256.11V0.00195312H1350.18V15.3637H1272.47V68.9326H1345.26V84.318H1272.47V156.573L1272.56 156.589ZM1257.54 155.25H1271.31V82.9H1344.1V70.201H1271.31V13.9535H1349.02V1.34907H1257.64V155.25H1257.54Z" fill="#213257"/>
<path d="M1375.94 0.625V14.6475H1425.12V155.873H1440.61V14.6475H1489.89V0.625H1375.94Z" fill="#213257"/>
<path d="M1441.22 156.589H1424.49V15.3637H1375.31V0.00195312H1490.59V15.3637H1441.23L1441.22 156.589ZM1425.83 155.25H1439.87V14.0402H1489.23V1.34116H1376.65V14.0402H1425.84V155.25H1425.83Z" fill="#213257"/>
<path d="M0 253.62H238.595V0.986572H0V253.62ZM7.68873 54.8234C10.0259 66.099 14.6323 76.7812 21.2277 86.2206C27.8231 95.66 36.2696 103.659 46.0536 109.732C88.0816 139.155 125.737 157.038 96.5817 212.143C127.699 185.311 146.842 150.255 94.5256 110.913C31.5033 63.6072 43.9108 22.3827 93.9899 8.69893H135.128C72.1685 52.8146 134.411 102.059 178.054 150.176C200.057 174.503 204.704 200.886 176.982 232.539C216.419 213.577 217.222 172.888 195.763 146.418C149.442 89.3596 98.3779 47.5995 202.199 8.69893H230.993V246.017H7.68873V54.8234Z" fill="#213257"/>
</svg>
