<svg width="38" height="38" viewBox="0 0 38 38" fill="none" xmlns="http://www.w3.org/2000/svg">
<path d="M23.569 0.612714C23.3755 0.61573 23.1909 0.69347 23.054 0.829455L16.365 7.47633C15.6582 6.42924 14.7354 5.54364 13.6578 4.87836C12.5803 4.21307 11.3727 3.78324 10.1152 3.61759C8.85779 3.45195 7.57929 3.55426 6.36464 3.91758C5.14999 4.28091 4.02701 4.89698 3.07028 5.72493C2.11355 6.55288 1.34498 7.57379 0.815613 8.71974C0.286245 9.86568 0.0081995 11.1105 -5.48049e-05 12.3714C-0.00830911 13.6324 0.253417 14.8806 0.767738 16.0333C1.28206 17.186 2.0372 18.2168 2.98301 19.057V34.682C2.98565 35.4675 3.30067 36.22 3.85933 36.7754C4.41799 37.3308 5.17495 37.6439 5.96501 37.6465H34.295C35.0851 37.6439 35.842 37.3308 36.4007 36.7754C36.9594 36.22 37.2744 35.4675 37.277 34.682V15.4115C37.2744 14.6261 36.9594 13.8735 36.4007 13.3181C35.842 12.7627 35.0851 12.4497 34.295 12.447L29.935 4.27121C29.8893 4.18509 29.8269 4.10876 29.7514 4.04671C29.6759 3.98466 29.5888 3.93803 29.4951 3.90958C29.4014 3.88112 29.303 3.87144 29.2055 3.88094C29.108 3.89043 29.0134 3.91891 28.927 3.96491L27.838 4.53856L24.107 0.829455C24.0364 0.759122 23.9523 0.703571 23.8597 0.666171C23.7672 0.628771 23.6679 0.610289 23.568 0.611743L23.569 0.612714ZM23.581 2.40222L26.461 5.26536L17.535 9.97261C17.4209 9.58298 17.2799 9.20158 17.113 8.83126L23.581 2.40113V2.40222ZM8.94701 5.02969C10.4215 5.02969 11.8628 5.46431 13.0888 6.27867C14.3148 7.09304 15.2703 8.25054 15.8345 9.60478C16.3988 10.959 16.5464 12.4493 16.2588 13.8869C15.9711 15.3246 15.2611 16.6451 14.2185 17.6816C13.1759 18.7181 11.8475 19.424 10.4014 19.7099C8.95528 19.9959 7.45633 19.8492 6.09411 19.2882C4.73188 18.7273 3.56757 17.7774 2.7484 16.5586C1.92924 15.3398 1.49201 13.9068 1.49201 12.441C1.49056 11.4674 1.68237 10.5031 2.05644 9.60333C2.43052 8.70356 2.9795 7.88606 3.67195 7.19758C4.36439 6.5091 5.18668 5.9632 6.0917 5.5912C6.99672 5.21919 7.96768 5.02838 8.94701 5.02969ZM28.969 5.61425L32.609 12.441H17.893C17.8919 12.1208 17.8736 11.8009 17.838 11.4826L28.969 5.61425ZM8.52501 6.50901V7.88093C8.17491 7.92081 7.83259 8.01158 7.50901 8.15034C7.22101 8.27344 6.95751 8.44686 6.73101 8.66234C6.51979 8.87227 6.35345 9.1225 6.24201 9.39799C6.12859 9.69683 6.07229 10.014 6.07601 10.3334C6.06987 10.6703 6.1353 11.0047 6.26801 11.3147C6.40193 11.6 6.59319 11.8552 6.83001 12.0643C7.09978 12.2942 7.40072 12.4852 7.72401 12.6319C8.10962 12.801 8.5078 12.9404 8.91501 13.0485C9.20374 13.1406 9.48518 13.2539 9.75701 13.3874C9.96562 13.4845 10.1582 13.6126 10.328 13.7673C10.4663 13.89 10.5765 14.0408 10.651 14.2096C10.7186 14.374 10.7526 14.55 10.751 14.7276C10.7546 14.9383 10.713 15.1473 10.629 15.3409C10.5454 15.5204 10.4208 15.6781 10.265 15.8012C10.0924 15.9348 9.89546 16.0341 9.68501 16.0935C9.43183 16.1637 9.1698 16.1971 8.90701 16.1929C8.69468 16.1929 8.48325 16.1655 8.27801 16.1114C8.05929 16.0571 7.85639 15.9526 7.68553 15.8064C7.51467 15.6602 7.38059 15.4763 7.29401 15.2694C7.18063 14.9902 7.12715 14.6905 7.13701 14.3896H5.67901C5.66867 14.8039 5.74495 15.2158 5.90301 15.5994C6.03912 15.9154 6.24165 16.1988 6.49701 16.4305C6.75295 16.6514 7.04843 16.8223 7.36801 16.9345C7.69339 17.0518 8.03185 17.1297 8.37601 17.1662V18.3652H9.52601V17.1662C9.907 17.1321 10.2819 17.0485 10.641 16.9177C10.9515 16.8061 11.2382 16.6374 11.486 16.4206C11.7158 16.2163 11.8995 15.9659 12.025 15.6859C12.155 15.3801 12.2194 15.0506 12.214 14.7186C12.2204 14.3871 12.1581 14.0578 12.031 13.7513C11.9085 13.4692 11.7256 13.2172 11.495 13.0127C11.2327 12.7844 10.9369 12.5969 10.618 12.4569C10.2303 12.2797 9.82905 12.1335 9.41801 12.0195C9.11253 11.9259 8.81383 11.8116 8.52401 11.6775C8.31488 11.5758 8.11992 11.4474 7.94401 11.2957C7.8058 11.1767 7.69641 11.0282 7.62401 10.8613C7.56066 10.687 7.52916 10.5028 7.53101 10.3175C7.52899 10.115 7.56041 9.91348 7.62401 9.72104C7.68484 9.5502 7.78323 9.39496 7.91201 9.26669C8.05184 9.13386 8.21855 9.03226 8.40101 8.96852C8.62132 8.8955 8.8529 8.86186 9.08501 8.86913C9.31931 8.86416 9.55163 8.91274 9.76401 9.01123C9.95958 9.10323 10.1308 9.23943 10.264 9.40891C10.4023 9.58962 10.5042 9.79521 10.564 10.0144C10.6382 10.2644 10.6746 10.5241 10.672 10.7848H12.119C12.1598 10.0635 11.9328 9.35245 11.481 8.7866C11.0219 8.27385 10.3837 7.95394 9.69601 7.89185V6.51398H8.52401L8.52501 6.50901ZM17.757 13.9203H34.295C34.4915 13.9178 34.6866 13.9543 34.8686 14.0279C35.0506 14.1015 35.216 14.2107 35.355 14.3488C35.494 14.487 35.6037 14.6514 35.6777 14.8324C35.7517 15.0134 35.7886 15.2072 35.786 15.4025V21.3316H27.586C26.608 21.3475 25.6754 21.745 24.9895 22.4382C24.3035 23.1314 23.9191 24.0649 23.9191 25.0373C23.9191 26.0097 24.3035 26.9432 24.9895 27.6364C25.6754 28.3296 26.608 28.7271 27.586 28.743H35.786V34.6721C35.7886 34.8674 35.7517 35.0613 35.6777 35.2423C35.6037 35.4233 35.494 35.5876 35.355 35.7258C35.216 35.8639 35.0506 35.9731 34.8686 36.0467C34.6866 36.1203 34.4915 36.1568 34.295 36.1543H5.96401C5.7675 36.1568 5.57247 36.1203 5.39042 36.0467C5.20837 35.9731 5.04299 35.8639 4.90403 35.7258C4.76506 35.5876 4.65533 35.4233 4.58131 35.2423C4.50728 35.0613 4.47046 34.8674 4.47301 34.6721V20.1268C5.72058 20.8492 7.12594 21.2595 8.56829 21.3226C10.0106 21.3857 11.4469 21.0997 12.7534 20.4891C14.06 19.8785 15.1979 18.9617 16.0693 17.8173C16.9407 16.6729 17.5195 15.3352 17.756 13.9193L17.757 13.9203ZM17.894 15.4025V16.8849H19.385V15.4025H17.894ZM20.876 15.4025V16.8849H22.367V15.4025H20.876ZM23.858 15.4025V16.8849H25.349V15.4025H23.858ZM26.84 15.4025V16.8849H28.33V15.4025H26.84ZM29.822 15.4025V16.8849H31.313V15.4025H29.822ZM32.804 15.4025V16.8849H34.295V15.4025H32.804ZM32.804 18.3671V19.8494H34.295V18.3671H32.804ZM5.96501 21.3316V22.8139H7.45601V21.3316H5.96501ZM27.586 22.8139H35.786V27.2608H27.586C27.2883 27.267 26.9924 27.2141 26.7155 27.1052C26.4387 26.9963 26.1865 26.8334 25.9737 26.6263C25.761 26.4192 25.5919 26.172 25.4766 25.8992C25.3612 25.6263 25.3017 25.3333 25.3017 25.0373C25.3017 24.7413 25.3612 24.4483 25.4766 24.1754C25.5919 23.9026 25.761 23.6554 25.9737 23.4483C26.1865 23.2412 26.4387 23.0783 26.7155 22.9694C26.9924 22.8605 27.2883 22.8077 27.586 22.8139ZM5.96501 24.2962V25.7784H7.45601V24.2962H5.96501ZM26.84 24.2962V25.7784H28.33V24.2962H26.84ZM5.96501 27.2608V28.743H7.45601V27.2608H5.96501ZM5.96501 30.2252V31.7075H7.45601V30.2252H5.96501ZM32.804 30.2252V31.7075H34.295V30.2252H32.804ZM5.96501 33.1898V34.6721H7.45601V33.1898H5.96501ZM8.94701 33.1898V34.6721H10.438V33.1898H8.94701ZM11.929 33.1898V34.6721H13.42V33.1898H11.929ZM14.911 33.1898V34.6721H16.4V33.1898H14.911ZM17.893 33.1898V34.6721H19.384V33.1898H17.893ZM20.875 33.1898V34.6721H22.366V33.1898H20.875ZM23.857 33.1898V34.6721H25.348V33.1898H23.857ZM26.839 33.1898V34.6721H28.33V33.1898H26.839ZM29.821 33.1898V34.6721H31.312V33.1898H29.821ZM32.803 33.1898V34.6721H34.294V33.1898H32.803Z" fill="url(#paint0_linear_1_321)"/>
<defs>
<linearGradient id="paint0_linear_1_321" x1="-0.000244141" y1="19.1291" x2="37.277" y2="19.1291" gradientUnits="userSpaceOnUse">
<stop stop-color="#1F8FEB"/>
<stop offset="1" stop-color="#28D2EF"/>
</linearGradient>
</defs>
</svg>
